# xmcd CD database file
#
# Track frame offsets:
#	150
#	12515
#	18240
#	31182
#	41202
#	52395
#	64200
#	74162
#	83690
#	100892
#	109327
#	125572
#	142612
#	155725
#	166547
#	176472
#	196517
#	214185
#	230280
#	243235
#	268062
#
# Disc length: 3720 seconds
#
# Revision: 2
# Processed by: cddbd v1.4PL0 Copyright (c) Steve Scherf et al.
# Submitted via: CDex 1.40Beta8
#
DISCID=230e8615
DTITLE=The Nitty Gritty Dirt Band - Will The Circle Be Unbroken Disc 2
DYEAR=1972
DGENRE=Country
TTITLE0=Lonesome fiddle blues
TTITLE1=Cannonball rag
TTITLE2=Avalanche
TTITLE3=Flint hill special
TTITLE4=Togary mountain
TTITLE5=Earl´s breakdown
TTITLE6=Orange blossom special
TTITLE7=Wabash Cannonball
TTITLE8=Lost highway
TTITLE9=Doc Watson and Merle Travis
TTITLE10=Way downtown
TTITLE11=Down yonder
TTITLE12=Pins and needles in my heart
TTITLE13=Honky Tonk blues
TTITLE14=Sailin´ on to Hawaii
TTITLE15=I´m thinknig tonight of my blue eyes
TTITLE16=I am a pilgrim
TTITLE17=Wildwood flower
TTITLE18=Soldiers joy
TTITLE19=Will the circle be unbroken
TTITLE20=Both sides now
EXTD=YEAR: 1972 ID3G: 2
EXTT0=
EXTT1=
EXTT2=
EXTT3=
EXTT4=
EXTT5=
EXTT6=
EXTT7=
EXTT8=
EXTT9=
EXTT10=
EXTT11=
EXTT12=
EXTT13=
EXTT14=
EXTT15=
EXTT16=
EXTT17=
EXTT18=
EXTT19=
EXTT20=
PLAYORDER=
